<?xml version="1.0" encoding="UTF-8" standalone="no"?>
<!-- Created with Inkscape (http://www.inkscape.org/) -->

<svg
   width="1047.2905mm"
   height="522.37292mm"
   viewBox="0 0 1047.2905 522.37292"
   version="1.1"
   id="svg1"
   sodipodi:docname="ndric_svg_final.svg"
   inkscape:version="1.4.2 (f4327f4, 2025-05-13)"
   xml:space="preserve"
   xmlns:inkscape="http://www.inkscape.org/namespaces/inkscape"
   xmlns:sodipodi="http://sodipodi.sourceforge.net/DTD/sodipodi-0.dtd"
   xmlns:xlink="http://www.w3.org/1999/xlink"
   xmlns="http://www.w3.org/2000/svg"
   xmlns:svg="http://www.w3.org/2000/svg"><sodipodi:namedview
     id="namedview1"
     pagecolor="#ffffff"
     bordercolor="#000000"
     borderopacity="0.25"
     inkscape:showpageshadow="2"
     inkscape:pageopacity="0.0"
     inkscape:pagecheckerboard="true"
     inkscape:deskcolor="#d1d1d1"
     inkscape:document-units="mm"
     inkscape:zoom="0.19349819"
     inkscape:cx="2552.9955"
     inkscape:cy="2134.3869"
     inkscape:window-width="1124"
     inkscape:window-height="1385"
     inkscape:window-x="-9"
     inkscape:window-y="0"
     inkscape:window-maximized="0"
     inkscape:current-layer="layer1" /><defs
     id="defs1"><color-profile
       name="sRGB"
       xlink:href="../../../../../../WINDOWS/system32/spool/drivers/color/surface-srgb.icm"
       id="color-profile1" /><inkscape:path-effect
       effect="bspline"
       id="path-effect3"
       is_visible="true"
       lpeversion="1.3"
       weight="33.333333"
       steps="2"
       helper_size="0"
       apply_no_weight="true"
       apply_with_weight="true"
       only_selected="false"
       uniform="false" /><inkscape:path-effect
       effect="bspline"
       id="path-effect1"
       is_visible="true"
       lpeversion="1.3"
       weight="33.333333"
       steps="2"
       helper_size="0"
       apply_no_weight="true"
       apply_with_weight="true"
       only_selected="false"
       uniform="false" /></defs><g
     id="layer1"
     inkscape:label="Layer 1"
     inkscape:groupmode="layer"
     transform="translate(-436.35472,-259.575)"><g
       id="g2"><g
         id="g8"
         inkscape:label="ndric_text"
         style="fill:#ffffff"><path
           id="path6"
           style="font-style:italic;font-size:479.778px;font-family:Baskervville;-inkscape-font-specification:'Baskervville, Italic';text-align:center;text-anchor:middle;opacity:0.5;fill:#ffffff;fill-opacity:0.518325;stroke:#ffffff;stroke-width:0.75;paint-order:fill markers stroke"
           d="m 1366.2044,647.23509 c -15.6727,0 -29.5863,-3.35844 -41.7407,-10.07533 -11.8345,-6.71689 -21.1102,-16.15253 -27.8271,-28.30691 -6.397,-12.15437 -9.5955,-26.22786 -9.5955,-42.22046 0,-18.55142 3.8382,-36.30321 11.5146,-53.25536 7.9963,-17.27201 18.7114,-32.62491 32.1452,-46.05869 13.7536,-13.75364 29.1065,-24.62861 46.0587,-32.62491 16.9521,-7.9963 34.544,-11.99445 52.7755,-11.99445 16.6323,0 29.7463,3.19852 39.3418,9.59556 9.5956,6.39704 14.3934,15.19297 14.3934,26.38779 0,7.03675 -2.079,12.95401 -6.2371,17.75179 -3.8383,4.79778 -8.9559,7.19667 -15.3529,7.19667 -6.0772,0 -10.875,-1.91911 -14.3934,-5.75734 -3.5183,-3.83822 -5.2775,-9.11578 -5.2775,-15.83267 v -7.67645 c 0,-7.9963 -1.2794,-13.43378 -3.8383,-16.31245 -2.5588,-3.19852 -7.0367,-4.79778 -13.4337,-4.79778 -11.8345,0 -23.829,3.99815 -35.9834,11.99445 -11.8345,7.9963 -22.8694,18.71134 -33.1047,32.14513 -9.9154,13.11393 -17.9117,27.6672 -23.9889,43.6598 -5.7573,15.9926 -8.636,31.9852 -8.636,47.9778 0,19.51097 4.4779,35.02379 13.4338,46.53846 9.2757,11.51467 21.4301,17.27201 36.4631,17.27201 12.1544,0 23.9889,-3.6783 35.5036,-11.03489 11.8345,-7.67645 21.7499,-17.91171 29.7462,-30.70579 l 8.636,6.23711 c -7.9963,15.67275 -19.0311,27.98705 -33.1046,36.94291 -13.7537,8.636 -29.5864,12.954 -47.4981,12.954 z m -94.5162,100.75339 10.5551,-2.39889 c 1.9191,6.07717 4.9577,11.35473 9.1158,15.83266 4.1581,4.47793 10.2352,6.7169 18.2315,6.7169 8.9559,0 17.432,-2.87867 25.4283,-8.636 8.3161,-5.43747 15.1929,-13.11392 20.6304,-23.02935 5.4375,-9.59556 8.1562,-20.47053 8.1562,-32.6249 0,-7.03675 -1.7592,-12.79408 -5.2775,-17.27201 -3.5184,-4.47793 -8.9559,-6.71689 -16.3125,-6.71689 -5.4375,0 -11.5146,1.75919 -18.2315,5.27756 -6.7169,3.83822 -12.7941,8.47607 -18.2316,13.91356 l -7.6764,-6.23711 c 7.6764,-8.31615 15.9925,-14.55327 24.9484,-18.71135 9.2757,-4.15807 18.3915,-6.23711 27.3474,-6.23711 11.8345,0 21.1102,3.19852 27.8271,9.59556 6.7169,6.71689 10.0753,14.71319 10.0753,23.9889 0,15.35289 -3.9981,28.9466 -11.9944,40.78113 -7.9963,12.15441 -17.9118,21.74998 -29.7463,28.78671 -11.5147,7.03673 -23.0293,10.5551 -34.544,10.5551 -9.2757,0 -17.5918,-2.71873 -24.9484,-8.1562 -7.3566,-5.11767 -12.4742,-13.59376 -15.3529,-25.42827 z m 90.1982,-75.32515 -12.954,-1.43934 11.9945,-30.70579 h 14.3933 z" /><path
           style="font-style:italic;font-size:479.778px;font-family:Baskervville;-inkscape-font-specification:'Baskervville, Italic';text-align:center;text-anchor:middle;opacity:0.5;fill:#ffffff;fill-opacity:0.518325;stroke:#ffffff;stroke-width:0.75;paint-order:fill markers stroke"
           d="m 1183.8889,647.23509 c -13.4338,0 -21.9099,-5.27756 -25.4282,-15.83267 -3.1985,-10.55512 -1.2794,-25.58816 5.7573,-45.09913 l 41.2609,-110.82873 c 4.7978,-13.11393 5.9173,-22.06978 3.3585,-26.86756 -2.5589,-5.11763 -9.7555,-7.67645 -21.59,-7.67645 h -13.9136 l 3.3584,-11.51467 77.7241,-1.43934 -60.4521,171.76053 c -7.0367,21.11023 -6.0772,31.66535 2.8787,31.66535 5.4375,0 11.5147,-2.87867 18.2316,-8.636 7.0367,-6.07719 13.2738,-14.0735 18.7113,-23.98891 l 8.636,5.75734 c -16.6323,28.46683 -36.1432,42.70024 -58.5329,42.70024 z"
           id="path5"
           inkscape:label="i_path" /><path
           style="font-style:italic;font-size:479.778px;font-family:Baskervville;-inkscape-font-specification:'Baskervville, Italic';text-align:center;text-anchor:middle;opacity:0.5;fill:#ffffff;fill-opacity:0.518325;stroke:#ffffff;stroke-width:0.75;paint-order:fill markers stroke"
           d="m 957.43408,640.5182 53.73512,-165.04364 c 4.4779,-13.11393 5.4375,-22.06978 2.8787,-26.86756 -2.5588,-5.11763 -9.5955,-7.67645 -21.11021,-7.67645 h -10.0754 l 3.8382,-11.51467 65.72971,-1.43934 -22.0698,84.92071 -2.3989,-3.83822 c 12.7941,-28.78669 26.0679,-50.3767 39.8216,-64.77004 14.0735,-14.39334 28.9466,-21.59001 44.6193,-21.59001 10.875,0 19.8309,3.0386 26.8676,9.11579 7.0367,6.07719 10.715,13.75363 11.0349,23.02934 0.3199,6.39704 -1.4393,11.6746 -5.2776,15.83267 -3.5183,3.83823 -8.476,5.75734 -14.8731,5.75734 -5.1176,0 -9.5955,-1.43933 -13.4338,-4.318 -3.5183,-3.19852 -6.0771,-8.79593 -7.6764,-16.79223 -0.9596,-4.47793 -2.7188,-7.83637 -5.2776,-10.07534 -2.2389,-2.55881 -5.2775,-3.83822 -9.1158,-3.83822 -11.1948,0 -23.5091,10.07534 -36.9429,30.22601 -13.4338,20.15068 -25.7481,47.3381 -36.9429,81.56226 l -28.78671,87.3196 z"
           id="path4"
           inkscape:label="r_path" /><path
           id="path2"
           style="font-style:italic;font-size:479.778px;font-family:Baskervville;-inkscape-font-specification:'Baskervville, Italic';text-align:center;text-anchor:middle;opacity:0.5;fill:#ffffff;fill-opacity:0.518325;stroke:#ffffff;stroke-width:0.75;paint-order:fill markers stroke"
           d="m 971.34786,298.43673 -77.72394,1.43919 -3.35845,11.51454 h 12.95425 c 11.19483,0 18.07145,2.39868 20.63026,7.19646 2.87867,4.79778 2.07911,13.9139 -2.39882,27.34769 l -39.18624,120.11411 c -1.57531,-12.14501 -5.46528,-21.79698 -11.67009,-28.95637 -7.9963,-9.59556 -20.31065,-14.39344 -36.94296,-14.39344 -16.6323,0 -33.10469,4.47795 -49.41714,13.43381 -16.31245,8.95585 -31.18571,21.1105 -44.6195,36.4634 -13.11393,15.03304 -23.66895,31.98506 -31.66525,50.85633 -7.9963,18.55141 -11.99462,37.42248 -11.99462,56.6136 0,21.11023 5.27751,37.58261 15.83263,49.41714 10.87497,11.83452 26.06816,17.75189 45.57913,17.75189 18.55141,0 35.66313,-5.59744 51.33588,-16.79226 11.84196,-8.28937 22.10562,-19.1216 30.79089,-32.49672 -0.92818,4.05563 -1.59609,7.85101 -2.00401,11.38638 -0.95956,8.31615 -0.79985,15.35301 0.47956,21.11034 1.59926,5.43749 4.47808,9.5955 8.63616,12.47417 4.47793,2.87867 10.07537,4.31809 16.79226,4.31809 11.19482,0 21.74984,-3.51817 31.66525,-10.55491 9.91541,-7.3566 19.03153,-18.07184 27.34768,-32.14533 l -8.63616,-5.75727 c -5.11763,9.27571 -11.19471,17.11212 -18.23145,23.50916 -6.71689,6.07719 -12.63426,9.11572 -17.75189,9.11572 -9.59556,0 -11.03497,-10.55502 -4.31808,-31.66525 z m -132.41879,136.2568 c 10.87497,0 19.19152,3.67838 24.94886,11.03498 5.75733,7.35659 8.63565,17.75139 8.63565,31.18518 0,8.31615 -1.2792,18.07161 -3.83801,29.26643 -2.23897,11.19482 -5.59742,22.70963 -10.07535,34.54415 -7.03675,18.23157 -15.67272,34.38401 -25.90798,48.4575 -10.23527,13.75364 -21.27043,24.62859 -33.10496,32.62489 -11.83452,7.9963 -23.50903,11.99461 -35.0237,11.99461 -23.3492,0 -34.54407,-16.47238 -33.58451,-49.41714 0.6397,-14.07349 3.03889,-28.14719 7.19697,-42.22068 4.47793,-14.39334 10.39478,-27.98689 17.75137,-40.78097 7.3566,-12.79408 15.51295,-24.14866 24.4688,-34.06407 9.27571,-10.23527 18.87146,-18.23139 28.78687,-23.98872 10.23527,-5.75734 20.15043,-8.63616 29.74599,-8.63616 z"
           inkscape:label="d_path" /><path
           style="font-style:italic;font-size:479.778px;font-family:Baskervville;-inkscape-font-specification:'Baskervville, Italic';text-align:center;text-anchor:middle;opacity:0.5;fill:#ffffff;fill-opacity:0.518325;stroke:#ffffff;stroke-width:0.75;paint-order:fill markers stroke"
           d="m 601.91912,647.23509 c -13.11393,0 -21.43009,-5.11763 -24.94846,-15.35289 -3.19852,-10.23527 -1.59926,-24.94846 4.79778,-44.13958 l 39.82157,-118.02539 c 3.51837,-10.87497 3.6783,-19.35105 0.47978,-25.42824 -2.87867,-6.39704 -8.79593,-9.59556 -17.75178,-9.59556 -7.67645,0 -16.15253,2.39889 -25.42824,7.19667 -9.27571,4.79778 -18.39149,11.19482 -27.34735,19.19112 -8.95585,7.9963 -16.95215,16.95216 -23.9889,26.86757 -6.71689,9.59556 -11.83452,19.35105 -15.35289,29.26646 L 471.4195,640.5182 h -34.54402 l 55.17447,-165.04364 c 4.47793,-13.11393 5.43748,-22.06978 2.87867,-26.86756 -2.55882,-5.11763 -9.59556,-7.67645 -21.11023,-7.67645 h -10.07534 l 3.35844,-11.51467 70.52737,-1.43934 -18.71134,65.72959 -0.95956,-6.71689 c 13.43379,-20.79038 28.62676,-36.62306 45.57891,-47.49803 17.27201,-11.19482 35.18373,-16.79223 53.73514,-16.79223 17.59186,0 29.26646,5.11763 35.0238,15.3529 6.07719,10.23527 5.91726,24.78853 -0.47978,43.6598 l -40.30135,120.42428 c -3.19852,8.95585 -4.15808,16.15252 -2.87867,21.59001 1.27941,5.11763 3.99815,7.67645 8.15622,7.67645 5.11763,0 10.87497,-2.71874 17.27201,-8.15623 6.39704,-5.43748 12.15438,-13.11393 17.27201,-23.02934 l 9.11578,5.75733 c -16.6323,27.50727 -36.14327,41.26091 -58.53291,41.26091 z"
           id="text2"
           inkscape:label="n_path" /></g><g
         inkscape:label="Image"
         id="g1"
         transform="matrix(0.81424679,0,0,0.56606108,983.83084,99.37398)"
         style="fill:#ffffff;fill-opacity:0.258824"><path
           style="fill:#ffffff;fill-opacity:0.258824;stroke:#ffffff;stroke-width:1.5;stroke-dasharray:none;stroke-opacity:1;paint-order:fill markers stroke"
           d="m 294.3675,283.84291 c 0.69405,1.52275 1.52275,18.88419 4.31969,36.34939 2.79694,17.4652 7.56192,35.03346 12.69996,47.17411 5.13805,12.14064 10.64885,18.85304 18.10732,25.13056 7.45847,6.27753 16.86412,12.1198 24.57116,16.32552 7.70705,4.20572 13.71506,6.77466 19.7232,9.34366 -9.48871,4.72364 -18.97742,9.44727 -26.93309,14.08808 -7.95566,4.64082 -14.37802,9.19862 -20.2619,15.16539 -5.88388,5.96677 -11.22894,13.34213 -15.22749,21.38068 -3.99854,8.03856 -6.65035,16.73982 -8.72214,24.92339 -2.07178,8.18357 -3.56343,15.84897 -4.43357,23.26598 -0.87015,7.41701 -1.11876,14.58519 -1.88532,13.0727 -0.76657,-1.51249 -2.05104,-11.7054 -3.64633,-21.3185 -1.59528,-9.61311 -3.50127,-18.64585 -5.73881,-26.47721 -2.23754,-7.83136 -4.80648,-14.46089 -7.87273,-20.07544 -3.06626,-5.61454 -6.62963,-10.21378 -10.87681,-14.50238 -4.24718,-4.28861 -9.1779,-8.26633 -14.66815,-11.99555 -5.49025,-3.72922 -11.5397,-7.20973 -17.43394,-10.20346 -5.89425,-2.99373 -11.63294,-5.50052 -17.37174,-8.00736 9.92378,-5.28302 19.84756,-10.56603 28.14506,-15.83874 8.29751,-5.27271 14.96848,-10.5349 19.92004,-15.63151 4.95157,-5.0966 8.18347,-10.02732 11.36367,-17.09215 3.1802,-7.06483 6.30851,-16.2633 8.70142,-26.28042 2.39291,-10.01712 4.05029,-20.85226 5.1587,-33.42805 1.1084,-12.57579 1.66776,-26.89144 2.3618,-25.36869 z"
           id="path1"
           sodipodi:nodetypes="ccccccccccccccccccccccccc"
           inkscape:label="star_left" /><path
           style="fill:#ffffff;fill-opacity:0.258824;stroke:#ffffff;stroke-width:1.5;stroke-dasharray:none;stroke-opacity:1;paint-order:fill markers stroke"
           d="m 294.3675,283.84291 c 0.69405,1.52275 1.52275,18.88419 4.31969,36.34939 2.79694,17.4652 7.56192,35.03346 12.69996,47.17411 5.13805,12.14064 10.64885,18.85304 18.10732,25.13056 7.45847,6.27753 16.86412,12.1198 24.57116,16.32552 7.70705,4.20572 13.71506,6.77466 19.7232,9.34366 -9.48871,4.72364 -18.97742,9.44727 -26.93309,14.08808 -7.95566,4.64082 -14.37802,9.19862 -20.2619,15.16539 -5.88388,5.96677 -11.22894,13.34213 -15.22749,21.38068 -3.99854,8.03856 -6.65035,16.73982 -8.72214,24.92339 -2.07178,8.18357 -3.56343,15.84897 -4.43357,23.26598 -0.87015,7.41701 -1.11876,14.58519 -1.88532,13.0727 -0.76657,-1.51249 -2.05104,-11.7054 -3.64633,-21.3185 -1.59528,-9.61311 -3.50127,-18.64585 -5.73881,-26.47721 -2.23754,-7.83136 -4.80648,-14.46089 -7.87273,-20.07544 -3.06626,-5.61454 -6.62963,-10.21378 -10.87681,-14.50238 -4.24718,-4.28861 -9.1779,-8.26633 -14.66815,-11.99555 -5.49025,-3.72922 -11.5397,-7.20973 -17.43394,-10.20346 -5.89425,-2.99373 -11.63294,-5.50052 -17.37174,-8.00736 9.92378,-5.28302 19.84756,-10.56603 28.14506,-15.83874 8.29751,-5.27271 14.96848,-10.5349 19.92004,-15.63151 4.95157,-5.0966 8.18347,-10.02732 11.36367,-17.09215 3.1802,-7.06483 6.30851,-16.2633 8.70142,-26.28042 2.39291,-10.01712 4.05029,-20.85226 5.1587,-33.42805 1.1084,-12.57579 1.66776,-26.89144 2.3618,-25.36869 z"
           id="path2-8"
           sodipodi:nodetypes="ccccccccccccccccccccccccc"
           transform="matrix(0.60914966,0,0,0.70130779,249.05637,243.39792)"
           inkscape:label="star_right" /></g></g></g></svg>
